<mxfile host="app.diagrams.net" modified="2024-05-30T15:09:25.021Z" agent="Mozilla/5.0 (Macintosh; Intel Mac OS X 10_15_7) AppleWebKit/605.1.15 (KHTML, like Gecko) Version/16.6 Safari/605.1.15" version="24.4.10" etag="UNFU_7tKrcFxL58N1xKn" type="github">
  <diagram name="Page-1" id="b9y3knh8dYRwGK-Pt__K">
    <mxGraphModel>
      <root>
        <mxCell id="0" />
        <mxCell id="1" parent="0" />
      </root>
    </mxGraphModel>
  </diagram>
</mxfile>
